<svg width="568" height="799" viewBox="0 0 568 799" fill="none" xmlns="http://www.w3.org/2000/svg">
<path fill-rule="evenodd" clip-rule="evenodd" d="M70 52.1663C70 32.1922 87.9086 16 110 16H458C480.091 16 498 32.1922 498 52.1663V799H70V52.1663Z" fill="#2C1349"/>
<g clip-path="url(#clip0_305_3051)">
<path opacity="0.2" fill-rule="evenodd" clip-rule="evenodd" d="M498.217 327.49L498.216 327.489L498.217 327.488L427.975 132.867L139.116 132.832L69.782 325.801V2.03937C69.8303 2.07837 75.3809 6.58126 84.742 12.2979C90.2039 15.6333 95.8527 18.7052 101.531 21.4281C108.63 24.8317 115.795 27.6965 122.829 29.943C131.521 32.7192 137.115 34.4048 141.774 35.3603C146.578 36.3458 150.363 36.5386 155.276 36.5386C157.425 36.5386 159.854 36.4983 162.667 36.4517C163.285 36.4414 163.924 36.4308 164.585 36.4203C168.431 36.3586 172.725 36.3016 178.061 36.3016C183.997 36.3016 190.078 36.3728 196.651 36.5193C212.058 36.862 237.569 37.0359 272.475 37.0359C297.665 37.0359 327.372 36.9463 360.77 36.7695C377.686 36.68 391.323 36.5902 398.649 36.542L398.733 36.5414C402.282 36.5181 404.425 36.5039 404.805 36.5039L404.835 36.504C404.959 36.5042 405.117 36.5069 405.3 36.5101C405.614 36.5155 406.001 36.5221 406.483 36.5221C410.862 36.5221 415.87 35.9219 421.369 34.738C430.4 32.7935 440.392 29.3543 451.067 24.516C477.225 12.6601 491.326 5.32816 498.217 0V327.49L498.218 327.488L498.217 327.488V327.49Z" fill="url(#paint0_linear_305_3051)"/>
</g>
<g opacity="0.32">
<g opacity="0.4">
<mask id="mask0_305_3051" style="mask-type:luminance" maskUnits="userSpaceOnUse" x="98" y="65" width="373" height="100">
<path fill-rule="evenodd" clip-rule="evenodd" d="M98.0952 65.827H470.001V164.449H98.0952V65.827Z" fill="white"/>
</mask>
<g mask="url(#mask0_305_3051)">
<path fill-rule="evenodd" clip-rule="evenodd" d="M112.953 128.114L114.19 127.163L144.702 157.4L143.465 158.351L112.953 128.114Z" fill="#917EA7"/>
<path fill-rule="evenodd" clip-rule="evenodd" d="M160.809 129.301L162.373 128.849L173.125 157.208L171.561 157.66L160.809 129.301Z" fill="#917EA7"/>
<path fill-rule="evenodd" clip-rule="evenodd" d="M203.649 157.228L213.38 128.87L214.959 129.283L205.227 157.641L203.649 157.228Z" fill="#917EA7"/>
<path fill-rule="evenodd" clip-rule="evenodd" d="M254.687 157.336L259.188 128.976L260.819 129.174L256.318 157.533L254.687 157.336Z" fill="#917EA7"/>
<path fill-rule="evenodd" clip-rule="evenodd" d="M422.916 157.873L454.47 126.608L455.706 127.559L424.152 158.824L422.916 157.873Z" fill="#917EA7"/>
<path fill-rule="evenodd" clip-rule="evenodd" d="M394.968 157.207L405.737 128.83L407.301 129.283L396.532 157.659L394.968 157.207Z" fill="#917EA7"/>
<path fill-rule="evenodd" clip-rule="evenodd" d="M353.139 129.282L354.717 128.87L364.445 157.229L362.867 157.641L353.139 129.282Z" fill="#917EA7"/>
<path fill-rule="evenodd" clip-rule="evenodd" d="M307.277 129.184L308.906 128.968L313.824 157.327L312.195 157.542L307.277 129.184Z" fill="#917EA7"/>
<path fill-rule="evenodd" clip-rule="evenodd" d="M117.816 100.843L119.142 99.9892L143.098 128.326L141.772 129.18L117.816 100.843Z" fill="#917EA7"/>
<path fill-rule="evenodd" clip-rule="evenodd" d="M162.861 104.472L164.44 104.062L173.132 129.544L171.553 129.955L162.861 104.472Z" fill="#917EA7"/>
<path fill-rule="evenodd" clip-rule="evenodd" d="M203.658 129.529L213.383 103.327L214.951 103.77L205.225 129.972L203.658 129.529Z" fill="#917EA7"/>
<path fill-rule="evenodd" clip-rule="evenodd" d="M255.917 129.641L260.431 103.8L262.059 104.017L257.545 129.858L255.917 129.641Z" fill="#917EA7"/>
<path fill-rule="evenodd" clip-rule="evenodd" d="M428.252 128.132L454.43 97.8854L455.745 98.7524L429.567 128.999L428.252 128.132Z" fill="#917EA7"/>
<path fill-rule="evenodd" clip-rule="evenodd" d="M394.964 129.545L403.666 104.042L405.245 104.453L396.543 129.955L394.964 129.545Z" fill="#917EA7"/>
<path fill-rule="evenodd" clip-rule="evenodd" d="M353.136 103.746L354.72 103.349L363.213 129.191L361.629 129.588L353.136 103.746Z" fill="#917EA7"/>
<path fill-rule="evenodd" clip-rule="evenodd" d="M306.043 104.026L307.668 103.79L312.587 129.632L310.962 129.868L306.043 104.026Z" fill="#917EA7"/>
<path fill-rule="evenodd" clip-rule="evenodd" d="M121.572 70.085L122.988 69.351L144.791 101.42L143.374 102.154L121.572 70.085Z" fill="#917EA7"/>
<path fill-rule="evenodd" clip-rule="evenodd" d="M162.861 77.5074L164.44 77.0969L173.132 102.579L171.553 102.99L162.861 77.5074Z" fill="#917EA7"/>
<path fill-rule="evenodd" clip-rule="evenodd" d="M206.953 102.563L216.678 76.3605L218.246 76.8039L208.52 103.006L206.953 102.563Z" fill="#917EA7"/>
<path fill-rule="evenodd" clip-rule="evenodd" d="M257.153 102.675L261.667 76.8338L263.295 77.0506L258.781 102.892L257.153 102.675Z" fill="#917EA7"/>
<path fill-rule="evenodd" clip-rule="evenodd" d="M425.724 102.316L450.142 65.8289L451.564 66.5543L427.146 103.041L425.724 102.316Z" fill="#917EA7"/>
<path fill-rule="evenodd" clip-rule="evenodd" d="M394.964 102.579L403.666 77.0763L405.245 77.4869L396.543 102.989L394.964 102.579Z" fill="#917EA7"/>
<path fill-rule="evenodd" clip-rule="evenodd" d="M349.841 76.7811L351.426 76.3843L359.918 102.226L358.334 102.623L349.841 76.7811Z" fill="#917EA7"/>
<path fill-rule="evenodd" clip-rule="evenodd" d="M304.807 77.0601L306.432 76.8244L311.351 102.666L309.726 102.902L304.807 77.0601Z" fill="#917EA7"/>
</g>
</g>
<path fill-rule="evenodd" clip-rule="evenodd" d="M403.61 129.974H157.871C147.989 129.974 138.043 129.741 128.312 129.281C91.7219 127.555 70.9685 125.792 62.9991 123.735L63.5831 122.011C71.3943 124.027 91.9979 125.767 128.422 127.486C138.118 127.944 148.026 128.176 157.871 128.176H403.61C416.356 128.176 429.172 127.786 441.701 127.017C481.094 124.599 502.179 122.93 504.372 122.055L505.228 123.69C503.531 124.367 494.794 125.561 441.845 128.81C429.269 129.583 416.404 129.974 403.61 129.974Z" fill="#917EA7"/>
<path fill-rule="evenodd" clip-rule="evenodd" d="M403.611 104.806H157.873C147.956 104.806 137.974 104.114 128.206 102.747C91.4992 97.613 70.6573 92.3558 62.6141 86.2019L63.9716 84.85C71.7104 90.7709 92.2245 95.8937 128.532 100.972C138.192 102.323 148.064 103.009 157.873 103.009H403.611C416.312 103.009 429.081 101.857 441.565 99.5861C460.774 96.0918 475.121 93.2345 485.424 90.8507C500.13 87.4488 503.358 85.7197 503.974 84.992L505.63 86.0599C503.904 88.1002 495.11 91.6816 441.985 101.346C429.363 103.642 416.453 104.806 403.611 104.806Z" fill="#917EA7"/>
<path fill-rule="evenodd" clip-rule="evenodd" d="M403.612 77.4813H157.873C147.886 77.4813 137.838 75.8429 128.007 72.6121C91.2375 60.5283 70.3803 48.1906 62.3672 33.7852L64.2197 33C71.9881 46.9656 92.4875 59.0182 128.732 70.9294C138.331 74.084 148.135 75.6836 157.873 75.6836H403.612C416.225 75.6836 428.913 72.9939 441.323 67.6892C481.128 50.6747 501.572 39.3682 503.82 33.123L505.785 33.6623C503.324 40.4961 483.128 51.8216 442.228 69.3036C429.533 74.7301 416.541 77.4813 403.612 77.4813" fill="#917EA7"/>
<path fill-rule="evenodd" clip-rule="evenodd" d="M403.612 77.4813H157.873C147.886 77.4813 137.838 75.8429 128.007 72.6121C91.2375 60.5283 70.3803 48.1906 62.3672 33.7852L64.2197 33C71.9881 46.9656 92.4875 59.0182 128.732 70.9294C138.331 74.084 148.135 75.6836 157.873 75.6836H403.612C416.225 75.6836 428.913 72.9939 441.323 67.6892C481.128 50.6747 501.572 39.3682 503.82 33.123L505.785 33.6623C503.324 40.4961 483.128 51.8216 442.228 69.3036C429.533 74.7301 416.541 77.4813 403.612 77.4813Z" fill="#917EA7"/>
</g>
<path opacity="0.1" fill-rule="evenodd" clip-rule="evenodd" d="M139.334 172.862L428.193 172.897L566.976 557.429L1.19299 557.331L139.334 172.862Z" fill="url(#paint1_linear_305_3051)"/>
<g opacity="0.4">
<mask id="mask1_305_3051" style="mask-type:luminance" maskUnits="userSpaceOnUse" x="0" y="172" width="568" height="387">
<path fill-rule="evenodd" clip-rule="evenodd" d="M0 172.188H568V558.188H0V172.188Z" fill="white"/>
</mask>
<g mask="url(#mask1_305_3051)">
<path fill-rule="evenodd" clip-rule="evenodd" d="M283.808 482.562C283.398 482.562 283.01 482.629 282.655 482.75C282.302 482.87 281.983 483.045 281.715 483.262C281.447 483.48 281.23 483.738 281.079 484.027C280.928 484.314 280.845 484.632 280.843 484.966V485.005C280.849 485.331 280.932 485.644 281.083 485.925C281.232 486.208 281.447 486.465 281.711 486.68C281.975 486.895 282.291 487.07 282.64 487.191C282.989 487.313 283.374 487.383 283.776 487.385V487.387H283.81H283.817C284.227 487.387 284.618 487.319 284.972 487.194C285.327 487.072 285.646 486.894 285.914 486.674C286.18 486.455 286.397 486.193 286.546 485.904C286.694 485.616 286.775 485.298 286.775 484.966H285.418H284.053C284.053 484.993 284.048 485.021 284.034 485.044C284.023 485.069 284.004 485.09 283.983 485.108C283.961 485.125 283.934 485.139 283.906 485.151C283.876 485.16 283.844 485.164 283.808 485.164C283.776 485.164 283.744 485.16 283.715 485.151C283.685 485.139 283.659 485.125 283.636 485.108C283.614 485.09 283.597 485.069 283.583 485.044C283.57 485.021 283.563 484.993 283.563 484.966C283.563 484.937 283.57 484.91 283.583 484.887C283.597 484.863 283.614 484.842 283.636 484.825C283.659 484.805 283.685 484.792 283.715 484.782C283.744 484.772 283.776 484.766 283.808 484.766C283.844 484.766 283.876 484.772 283.906 484.782C283.934 484.792 283.961 484.805 283.983 484.825C284.004 484.842 284.023 484.863 284.034 484.887C284.048 484.91 284.053 484.937 284.053 484.966H285.418H286.775V484.958C286.773 484.627 286.688 484.31 286.537 484.023C286.386 483.736 286.167 483.478 285.899 483.262C285.629 483.045 285.31 482.87 284.957 482.75C284.602 482.629 284.216 482.562 283.808 482.562M284.791 482.562H283.791H284.791Z" fill="#BFB6EB"/>
<path fill-rule="evenodd" clip-rule="evenodd" d="M283.744 193.467C283.5 193.467 283.268 193.493 283.059 193.535C282.849 193.578 282.659 193.64 282.5 193.716C282.342 193.794 282.211 193.885 282.123 193.986C282.034 194.087 281.985 194.199 281.983 194.316V194.329H281.985C281.987 194.446 282.038 194.556 282.126 194.655C282.217 194.756 282.345 194.847 282.506 194.923C282.664 194.999 282.853 195.061 283.063 195.104C283.272 195.146 283.502 195.17 283.744 195.17H283.75C283.993 195.17 284.223 195.144 284.433 195.102C284.644 195.059 284.833 194.997 284.991 194.919C285.15 194.842 285.278 194.75 285.367 194.648C285.456 194.547 285.505 194.434 285.505 194.318H284.699H283.889C283.889 194.327 283.885 194.337 283.878 194.345C283.87 194.353 283.861 194.36 283.848 194.366C283.834 194.374 283.819 194.378 283.802 194.382C283.784 194.386 283.765 194.387 283.744 194.387C283.725 194.387 283.706 194.386 283.689 194.382C283.672 194.378 283.655 194.374 283.642 194.366C283.629 194.36 283.617 194.353 283.61 194.345C283.602 194.337 283.599 194.327 283.599 194.318V194.316C283.599 194.306 283.602 194.296 283.61 194.288C283.617 194.281 283.629 194.273 283.642 194.267C283.655 194.261 283.672 194.255 283.689 194.254C283.706 194.25 283.725 194.248 283.744 194.248C283.765 194.248 283.784 194.25 283.802 194.254C283.819 194.255 283.834 194.261 283.848 194.267C283.861 194.273 283.87 194.281 283.878 194.288C283.885 194.296 283.889 194.306 283.889 194.316V194.318H284.699H285.505V194.316C285.503 194.197 285.454 194.087 285.365 193.984C285.276 193.883 285.146 193.792 284.988 193.716C284.829 193.638 284.638 193.576 284.429 193.533C284.218 193.491 283.987 193.468 283.744 193.468M284.738 193.467H283.738H284.738Z" fill="#BFB6EB"/>
<path fill-rule="evenodd" clip-rule="evenodd" d="M285.582 304.718H281.479C281.56 304.864 281.672 305 281.807 305.121C281.943 305.243 282.102 305.35 282.281 305.438C282.458 305.526 282.655 305.595 282.864 305.644C283.076 305.692 283.298 305.718 283.53 305.718H283.536C283.766 305.716 283.989 305.69 284.199 305.641C284.408 305.593 284.604 305.523 284.782 305.435C284.959 305.348 285.118 305.241 285.254 305.121C285.388 304.998 285.499 304.864 285.582 304.718M283.53 302.859H283.495C283.266 302.863 283.049 302.889 282.844 302.938C282.638 302.987 282.447 303.058 282.274 303.147C282.1 303.233 281.943 303.339 281.811 303.46C281.677 303.58 281.568 303.713 281.485 303.859H285.576C285.493 303.711 285.382 303.575 285.246 303.453C285.11 303.332 284.952 303.226 284.774 303.137C284.597 303.051 284.402 302.98 284.193 302.931C283.983 302.884 283.761 302.859 283.53 302.859" fill="#BFB6EB"/>
<path fill-rule="evenodd" clip-rule="evenodd" d="M423.584 172.774L423.464 172.488L424.73 172.467L424.856 172.76V172.764L424.858 172.768L424.86 172.77L424.862 172.774H427.682L428.15 174.08H428.155H428.161H428.167H428.172L428.82 174.095L428.971 174.683L428.361 174.672L429.005 176.475L433.757 189.762L438.83 203.95L444.256 219.127L450.076 235.405L456.336 252.906L463.083 271.775L470.379 292.18L474.493 303.687H475.084L475.454 304.718H474.861L478.293 314.313L486.908 338.407L496.322 364.731L506.651 393.617L518.031 425.446L530.636 460.7L544.675 499.961L560.406 543.953L562.161 548.858L563.352 548.803L564.256 551.002L563.033 551.049L563.012 551.051L562.989 551.053H562.967L562.946 551.055L564.699 555.957H559.251L559.256 555.977L559.264 555.998L559.27 556.018L559.275 556.037L559.622 557.155L557.094 557.075L556.75 555.957H444.244L444.41 556.769H441.91L441.747 555.957H356.992L357.068 556.769H354.569L354.495 555.957H213.501L213.429 556.769H210.931L211.004 555.957H126.251L126.198 556.223H123.709L123.763 555.957H10.3819L10.3423 556.148C10.3272 556.212 10.314 556.276 10.297 556.34C10.2819 556.404 10.263 556.47 10.246 556.534L10.1894 556.73L9.84403 557.85L7.3132 557.929L7.66989 556.809C7.69254 556.738 7.7133 556.664 7.73217 556.592C7.75104 556.52 7.76992 556.448 7.78501 556.379C7.80011 556.307 7.81332 556.237 7.82653 556.167C7.83785 556.097 7.84729 556.027 7.85673 555.957H3.29898L4.74274 551.909C4.67669 551.895 4.60874 551.884 4.5408 551.874C4.47286 551.862 4.40303 551.854 4.3332 551.845C4.26337 551.837 4.19165 551.831 4.11994 551.825C4.04822 551.819 3.97651 551.816 3.9029 551.812L2.67806 551.763L3.58395 549.562L4.80313 549.617C4.86541 549.618 4.92958 549.622 4.99186 549.626C5.05225 549.63 5.11453 549.634 5.17681 549.64L5.35799 549.657C5.41838 549.663 5.47878 549.671 5.53917 549.679L7.5812 543.953L23.272 499.961L37.2755 460.7L49.8504 425.446L61.2023 393.617L71.5068 364.731L80.8959 338.407L89.4887 314.313L92.9122 304.718H91.8421L92.212 303.687H93.2802L97.385 292.18L104.662 271.775L111.392 252.906L117.635 235.405L123.441 219.127L128.855 203.95L133.915 189.762L138.654 176.475L139.279 174.724L138.635 174.74L138.786 174.148L139.433 174.136H139.447L139.462 174.134H139.475H139.488L139.958 172.822L142.742 172.82V172.818H142.744V172.814L142.745 172.812L142.87 172.519L144.142 172.541L144.023 172.82L201.702 172.811L201.738 172.636H203.012L202.978 172.811L246.417 172.803L246.445 172.492H247.725L247.697 172.803L319.958 172.791L319.932 172.492H321.209L321.238 172.791L364.673 172.783L364.615 172.492H365.894L365.953 172.783L423.584 172.774ZM428.75 172.188L138.888 172.236L137.363 176.475L132.583 189.762L127.476 203.95L122.014 219.127L116.156 235.405L109.858 252.906L103.068 271.775L95.7261 292.18L87.7599 314.313L79.0898 338.407L69.6176 364.731L59.2225 393.617L47.7687 425.446L35.0825 460.7L20.9543 499.961L5.12205 543.953L0 558.187H568L562.865 543.953L546.995 499.961L532.831 460.7L520.112 425.446L508.63 393.617L498.211 364.731L488.714 338.407L480.021 314.313L472.038 292.18L464.676 271.775L457.868 252.906L451.556 235.405L445.684 219.127L440.207 203.95L435.089 189.762L430.297 176.475L428.75 172.188" fill="#BFB6EB"/>
<path fill-rule="evenodd" clip-rule="evenodd" d="M365.894 172.492H364.614L364.675 172.784L365.416 176.473L368.089 189.76L370.942 203.95L371.191 205.186H196.494L196.742 203.95L199.584 189.76L202.245 176.473L202.977 172.811L203.013 172.636H201.739L201.703 172.811L200.958 176.473L198.255 189.76L195.368 203.95L194.977 205.872H250.935L250.916 205.858L250.895 205.844L250.876 205.829L250.857 205.815L252.007 205.415C252.059 205.454 252.112 205.493 252.167 205.53C252.22 205.569 252.275 205.608 252.327 205.644C252.382 205.683 252.437 205.72 252.492 205.759C252.546 205.798 252.601 205.835 252.656 205.872H314.958C315.021 205.831 315.081 205.788 315.141 205.747L315.321 205.621C315.381 205.578 315.441 205.536 315.5 205.493C315.558 205.452 315.617 205.41 315.675 205.367L316.83 205.765L316.795 205.792L316.757 205.819L316.721 205.846L316.685 205.872H372.714L372.322 203.95L369.423 189.76L366.707 176.473L365.954 172.784L365.894 172.492Z" fill="#BFB6EB"/>
<path fill-rule="evenodd" clip-rule="evenodd" d="M321.211 172.493H319.933L319.96 172.791L320.292 176.473L320.845 182.608H246.822L247.37 176.473L247.698 172.803L247.726 172.492H246.447L246.418 172.803L246.079 176.473L245.454 183.224H322.213L321.583 176.473L321.239 172.791L321.211 172.493Z" fill="#BFB6EB"/>
<path fill-rule="evenodd" clip-rule="evenodd" d="M423.481 454.333H335.453L335.536 454.415C335.562 454.442 335.591 454.469 335.617 454.498C335.646 454.526 335.674 454.553 335.7 454.58L335.783 454.662L334.087 455.646C333.977 455.533 333.866 455.422 333.754 455.314C333.643 455.203 333.534 455.092 333.42 454.984C333.309 454.875 333.196 454.766 333.085 454.658C332.971 454.549 332.858 454.44 332.743 454.333H235.05C234.947 454.431 234.845 454.53 234.743 454.627L234.437 454.924C234.335 455.023 234.235 455.121 234.133 455.222C234.033 455.321 233.933 455.422 233.833 455.523L232.144 454.535L232.195 454.483L232.246 454.434L232.295 454.384L232.346 454.334H144.435L143.14 460.7L135.153 499.959L126.206 543.953L123.764 555.957L123.709 556.221H126.198L126.251 555.957L128.656 543.953L137.465 499.959L145.328 460.7L146.262 456.03H421.648L422.588 460.7L430.485 499.959L439.334 543.953L441.748 555.957L441.912 556.769H444.411L444.245 555.957L441.793 543.953L432.804 499.959L424.781 460.7L423.481 454.333Z" fill="#BFB6EB"/>
<path fill-rule="evenodd" clip-rule="evenodd" d="M353.523 518.76H214.444L212.115 543.953L211.005 555.957L210.93 556.769H213.431L213.502 555.957L214.574 543.953L216.641 520.793H351.328L353.415 543.953L354.496 555.957L354.57 556.769H357.069L356.993 555.957L355.874 543.953L353.523 518.76Z" fill="#BFB6EB"/>
<path fill-rule="evenodd" clip-rule="evenodd" d="M233.97 303.685H93.2821H92.2139L91.844 304.716H92.9141H233.874C233.876 304.673 233.88 304.631 233.882 304.588L233.893 304.46C233.895 304.415 233.899 304.373 233.902 304.33L233.914 304.202C233.918 304.157 233.923 304.114 233.927 304.072C233.931 304.029 233.936 303.986 233.94 303.944C233.946 303.899 233.95 303.856 233.955 303.814C233.959 303.771 233.965 303.728 233.97 303.685M331.64 303.685H285.578H281.486H235.66C235.654 303.728 235.65 303.771 235.644 303.814C235.639 303.856 235.635 303.899 235.631 303.944C235.626 303.986 235.622 304.029 235.618 304.072C235.614 304.114 235.609 304.157 235.605 304.202L235.594 304.33C235.592 304.373 235.588 304.415 235.584 304.46C235.58 304.503 235.578 304.545 235.575 304.588C235.573 304.631 235.569 304.673 235.567 304.716H281.479H285.582H331.735C331.731 304.673 331.727 304.631 331.725 304.588C331.721 304.545 331.72 304.503 331.714 304.46C331.71 304.415 331.71 304.373 331.706 304.33L331.695 304.202L331.682 304.072C331.678 304.029 331.674 303.986 331.669 303.944C331.665 303.899 331.661 303.856 331.654 303.814C331.65 303.771 331.646 303.728 331.64 303.685ZM475.086 303.685H474.495H333.337C333.341 303.728 333.346 303.771 333.352 303.814C333.354 303.856 333.362 303.899 333.365 303.944C333.371 303.986 333.375 304.029 333.379 304.072L333.39 304.202L333.403 304.33L333.414 304.46C333.418 304.503 333.418 304.545 333.424 304.588C333.428 304.631 333.43 304.673 333.431 304.716H474.861H475.456L475.086 303.685Z" fill="#BFB6EB"/>
<path fill-rule="evenodd" clip-rule="evenodd" d="M241.059 292.18C243.114 289.808 245.683 287.637 248.661 285.719C251.617 283.813 254.982 282.152 258.656 280.787C262.314 279.429 266.284 278.361 270.482 277.633C274.668 276.907 279.086 276.517 283.653 276.517C288.218 276.517 292.636 276.907 296.822 277.633C301.018 278.361 304.989 279.429 308.646 280.787C312.321 282.152 315.686 283.813 318.639 285.719C321.617 287.637 324.186 289.808 326.241 292.18C326.987 293.04 327.664 293.925 328.27 294.835C328.878 295.749 329.412 296.687 329.868 297.648C330.329 298.61 330.708 299.596 331.005 300.602C331.303 301.611 331.516 302.639 331.641 303.686C331.646 303.728 331.652 303.771 331.656 303.814C331.661 303.856 331.665 303.901 331.669 303.944C331.674 303.986 331.678 304.029 331.682 304.072C331.688 304.115 331.691 304.157 331.695 304.202L331.707 304.33C331.71 304.373 331.712 304.417 331.716 304.46C331.72 304.503 331.722 304.545 331.725 304.588C331.729 304.631 331.731 304.673 331.733 304.718C331.784 305.545 331.778 306.366 331.716 307.181C331.654 307.996 331.537 308.806 331.365 309.607C331.191 310.409 330.965 311.204 330.687 311.987C330.408 312.773 330.076 313.549 329.693 314.314C328.226 317.244 326.016 319.995 323.178 322.479C320.315 324.987 316.82 327.219 312.815 329.082C308.784 330.959 304.249 332.459 299.344 333.492C294.422 334.528 289.143 335.091 283.653 335.091C278.163 335.091 272.882 334.528 267.96 333.492C263.053 332.459 258.518 330.959 254.485 329.082C250.48 327.219 246.985 324.987 244.122 322.479C241.286 319.995 239.076 317.244 237.607 314.314C237.224 313.549 236.892 312.773 236.613 311.987C236.335 311.205 236.109 310.409 235.935 309.607C235.763 308.806 235.646 307.996 235.584 307.181C235.522 306.366 235.516 305.545 235.567 304.718C235.569 304.673 235.571 304.631 235.575 304.588C235.579 304.545 235.58 304.503 235.584 304.46C235.588 304.417 235.59 304.373 235.594 304.33L235.605 304.202C235.609 304.157 235.613 304.115 235.618 304.072C235.622 304.029 235.626 303.986 235.631 303.944C235.635 303.901 235.639 303.856 235.645 303.814C235.648 303.771 235.654 303.728 235.66 303.686C235.782 302.639 235.998 301.611 236.296 300.602C236.592 299.596 236.971 298.61 237.432 297.648C237.889 296.687 238.423 295.749 239.03 294.835C239.636 293.925 240.316 293.04 241.059 292.18M283.653 275.591C278.867 275.591 274.239 276.005 269.859 276.773C265.467 277.546 261.313 278.677 257.497 280.116C253.66 281.562 250.156 283.32 247.087 285.339C243.996 287.371 241.342 289.671 239.24 292.18C238.517 293.044 237.858 293.933 237.27 294.845C236.679 295.761 236.158 296.698 235.711 297.659C235.263 298.622 234.892 299.606 234.601 300.609C234.308 301.617 234.095 302.643 233.971 303.686C233.965 303.728 233.959 303.771 233.955 303.814C233.95 303.856 233.944 303.901 233.94 303.944C233.937 303.986 233.931 304.029 233.927 304.072C233.923 304.114 233.918 304.157 233.914 304.202L233.903 304.33C233.899 304.373 233.895 304.417 233.893 304.46L233.882 304.588C233.88 304.631 233.876 304.673 233.874 304.718C233.82 305.543 233.821 306.362 233.874 307.175C233.929 307.99 234.039 308.8 234.199 309.599C234.359 310.403 234.573 311.197 234.835 311.983C235.099 312.769 235.414 313.547 235.779 314.314C237.241 317.396 239.495 320.294 242.416 322.914C245.368 325.557 248.991 327.913 253.158 329.883C257.356 331.869 262.093 333.457 267.222 334.549C272.371 335.646 277.901 336.244 283.653 336.244C289.407 336.244 294.935 335.646 300.085 334.549C305.215 333.457 309.95 331.869 314.147 329.883C318.315 327.913 321.94 325.557 324.89 322.914C327.811 320.294 330.065 317.396 331.529 314.314C331.892 313.547 332.207 312.769 332.471 311.983C332.735 311.197 332.947 310.403 333.107 309.599C333.269 308.8 333.377 307.99 333.432 307.175C333.486 306.362 333.486 305.543 333.433 304.718C333.43 304.673 333.428 304.631 333.424 304.588C333.42 304.545 333.416 304.503 333.415 304.46L333.403 304.33L333.392 304.202C333.388 304.157 333.384 304.114 333.379 304.072C333.375 304.029 333.371 303.986 333.365 303.944L333.352 303.814C333.347 303.771 333.341 303.728 333.337 303.686C333.211 302.643 332.999 301.617 332.707 300.609C332.414 299.606 332.043 298.622 331.595 297.659C331.148 296.698 330.629 295.761 330.036 294.845C329.448 293.933 328.789 293.044 328.066 292.18C325.964 289.671 323.31 287.371 320.219 285.339C317.15 283.32 313.645 281.562 309.809 280.116C305.992 278.677 301.839 277.546 297.447 276.773C293.067 276.005 288.439 275.591 283.653 275.591" fill="#BFB6EB"/>
<path fill-rule="evenodd" clip-rule="evenodd" d="M3.58576 549.56L2.67798 551.763L3.90282 551.81C3.97642 551.814 4.05003 551.818 4.12174 551.824C4.19346 551.829 4.26329 551.837 4.33311 551.845C4.40483 551.853 4.47277 551.862 4.5426 551.872L4.74454 551.907C5.27864 552.01 5.75423 552.186 6.16565 552.425C6.57896 552.664 6.92433 552.967 7.1961 553.318C7.46787 553.671 7.66414 554.075 7.77738 554.519C7.89062 554.962 7.92081 555.445 7.85665 555.956C7.8491 556.026 7.83966 556.095 7.82645 556.165C7.81513 556.235 7.80003 556.305 7.78493 556.377C7.76983 556.449 7.75285 556.52 7.73397 556.592C7.7151 556.664 7.69434 556.736 7.67169 556.808L7.315 557.93L9.84583 557.848L10.1893 556.728C10.2101 556.662 10.2289 556.598 10.2478 556.532L10.2988 556.34C10.3139 556.274 10.329 556.21 10.3441 556.148C10.3573 556.084 10.3705 556.02 10.3818 555.956C10.5403 555.137 10.5328 554.362 10.3799 553.654C10.2271 552.947 9.92699 552.307 9.50046 551.754C9.07394 551.202 8.51908 550.739 7.85287 550.385C7.18667 550.032 6.411 549.789 5.53908 549.677C5.48057 549.669 5.42018 549.663 5.35979 549.656C5.2994 549.65 5.239 549.644 5.17672 549.64C5.11633 549.634 5.05405 549.63 4.99177 549.626C4.92949 549.621 4.86721 549.619 4.80493 549.615L3.58576 549.56Z" fill="#BFB6EB"/>
<path fill-rule="evenodd" clip-rule="evenodd" d="M142.872 172.52L142.747 172.813L142.746 172.815V172.816L142.744 172.818V172.82C142.666 172.995 142.523 173.162 142.325 173.313C142.125 173.467 141.874 173.604 141.581 173.723C141.29 173.839 140.96 173.936 140.607 174.008C140.252 174.078 139.875 174.123 139.49 174.134H139.477H139.462H139.448L139.435 174.136L138.788 174.148L138.637 174.74L139.281 174.724H139.284C139.845 174.713 140.394 174.653 140.909 174.552C141.426 174.453 141.908 174.313 142.332 174.142C142.757 173.973 143.125 173.773 143.414 173.552C143.702 173.331 143.912 173.088 144.019 172.834L144.025 172.82L144.144 172.541L142.872 172.52Z" fill="#BFB6EB"/>
<path fill-rule="evenodd" clip-rule="evenodd" d="M424.73 172.466L423.464 172.488L423.585 172.773L423.589 172.781C423.696 173.033 423.906 173.276 424.192 173.497C424.481 173.718 424.849 173.918 425.274 174.087C425.699 174.258 426.18 174.398 426.697 174.497C427.212 174.598 427.763 174.658 428.324 174.671H428.361L428.971 174.683L428.82 174.095L428.173 174.079H428.167H428.161H428.156H428.15C427.761 174.07 427.382 174.027 427.025 173.957C426.67 173.889 426.336 173.792 426.042 173.676C425.748 173.557 425.493 173.419 425.291 173.268C425.089 173.115 424.94 172.948 424.862 172.773L424.861 172.769L424.859 172.765L424.857 172.763V172.76L424.73 172.466Z" fill="#BFB6EB"/>
<path fill-rule="evenodd" clip-rule="evenodd" d="M563.352 548.803L562.161 548.858L562.134 548.86C561.079 548.902 560.143 549.126 559.349 549.496C558.554 549.869 557.903 550.387 557.42 551.022C556.935 551.657 556.62 552.408 556.499 553.24C556.378 554.073 556.454 554.991 556.752 555.958L557.095 557.075L559.622 557.155L559.277 556.037L559.269 556.018L559.264 555.998L559.258 555.977L559.252 555.958C559.058 555.298 559.013 554.671 559.1 554.1C559.185 553.529 559.402 553.013 559.732 552.576C560.062 552.14 560.506 551.779 561.047 551.517C561.589 551.257 562.227 551.096 562.946 551.055L562.968 551.053L562.989 551.051H563.012L563.035 551.049L564.257 551.002L563.352 548.803Z" fill="#BFB6EB"/>
<path fill-rule="evenodd" clip-rule="evenodd" d="M283.974 434.49C279.184 434.49 274.404 434.91 269.729 435.735C265.041 436.563 260.447 437.804 256.044 439.446C251.617 441.097 247.372 443.158 243.407 445.627C239.412 448.113 235.69 451.015 232.346 454.334L232.295 454.384L232.244 454.433C232.229 454.45 232.212 454.468 232.195 454.483L232.144 454.534L233.831 455.524C233.933 455.423 234.033 455.322 234.133 455.221C234.235 455.122 234.335 455.023 234.437 454.924L234.743 454.627C234.845 454.528 234.947 454.431 235.05 454.334C238.264 451.287 241.818 448.618 245.615 446.334C249.39 444.065 253.414 442.167 257.601 440.649C261.769 439.135 266.107 437.994 270.531 437.233C274.944 436.472 279.452 436.086 283.968 436.086C286.996 436.086 290.03 436.261 293.048 436.61C296.07 436.959 299.078 437.487 302.047 438.196C305.023 438.906 307.961 439.799 310.841 440.88C313.729 441.965 316.558 443.24 319.304 444.711C320.553 445.381 321.77 446.083 322.956 446.819C324.143 447.556 325.298 448.325 326.419 449.127C327.542 449.93 328.629 450.767 329.684 451.632C330.739 452.502 331.76 453.402 332.743 454.334C332.858 454.441 332.971 454.549 333.083 454.658C333.196 454.767 333.309 454.875 333.421 454.984C333.532 455.093 333.643 455.203 333.755 455.314C333.866 455.423 333.975 455.533 334.087 455.646L335.782 454.662L335.7 454.58C335.672 454.553 335.646 454.524 335.617 454.497L335.536 454.415C335.508 454.388 335.48 454.361 335.453 454.334C334.374 453.261 333.247 452.228 332.077 451.232C330.91 450.241 329.701 449.286 328.45 448.372C327.2 447.459 325.911 446.586 324.582 445.753C323.256 444.923 321.889 444.133 320.487 443.382C317.647 441.864 314.722 440.55 311.736 439.43C308.76 438.316 305.723 437.396 302.649 436.662C299.58 435.933 296.474 435.389 293.352 435.028C290.234 434.669 287.099 434.49 283.974 434.49" fill="#BFB6EB"/>
<path fill-rule="evenodd" clip-rule="evenodd" d="M315.676 205.365L315.501 205.495L315.321 205.621C315.263 205.663 315.202 205.706 315.142 205.747C315.082 205.79 315.019 205.83 314.959 205.871C314.398 206.251 313.81 206.624 313.194 206.983C312.575 207.344 311.932 207.692 311.258 208.025C310.584 208.363 309.884 208.687 309.157 208.996C308.429 209.31 307.676 209.607 306.897 209.891C305.224 210.506 303.473 211.045 301.654 211.513C299.831 211.981 297.943 212.375 296.003 212.689C294.063 213.01 292.072 213.248 290.049 213.409C288.026 213.571 285.969 213.652 283.898 213.652C283.357 213.652 282.813 213.646 282.27 213.635C281.726 213.623 281.182 213.605 280.637 213.584C280.094 213.563 279.548 213.534 279.003 213.501C278.459 213.468 277.914 213.425 277.368 213.382C274.841 213.175 272.393 212.848 270.053 212.416C267.715 211.983 265.486 211.441 263.389 210.801C261.3 210.162 259.343 209.427 257.543 208.598C255.748 207.777 254.111 206.865 252.656 205.871C252.602 205.834 252.545 205.795 252.49 205.758C252.437 205.722 252.383 205.683 252.328 205.646L252.166 205.531L252.007 205.415L250.856 205.815L250.877 205.83L250.896 205.842L250.916 205.857L250.935 205.871C252.821 207.234 255.01 208.443 257.437 209.493C259.875 210.547 262.549 211.437 265.39 212.158C268.24 212.878 271.252 213.429 274.354 213.796C277.463 214.166 280.658 214.353 283.864 214.353C285.955 214.353 288.05 214.273 290.128 214.112C292.204 213.951 294.263 213.71 296.284 213.386C298.302 213.062 300.28 212.658 302.201 212.169C304.117 211.682 305.97 211.113 307.746 210.463C308.622 210.141 309.467 209.801 310.28 209.446C311.094 209.093 311.875 208.724 312.622 208.34C313.368 207.958 314.081 207.56 314.759 207.146C315.436 206.733 316.078 206.31 316.684 205.871L316.722 205.846L316.757 205.817L316.795 205.792L316.831 205.766L315.676 205.365Z" fill="#BFB6EB"/>
</g>
</g>
<defs>
<linearGradient id="paint0_linear_305_3051" x1="284" y1="235.33" x2="284" y2="33.9111" gradientUnits="userSpaceOnUse">
<stop stop-color="#973EFF"/>
<stop offset="1" stop-color="#2C1349" stop-opacity="0"/>
</linearGradient>
<linearGradient id="paint1_linear_305_3051" x1="284.085" y1="172.862" x2="284.085" y2="557.429" gradientUnits="userSpaceOnUse">
<stop offset="0.3125" stop-color="#973EFF"/>
<stop offset="1" stop-color="#2C1349" stop-opacity="0"/>
</linearGradient>
<clipPath id="clip0_305_3051">
<rect width="428" height="327.49" fill="white" transform="translate(70)"/>
</clipPath>
</defs>
</svg>
